<svg xmlns="http://www.w3.org/2000/svg" xmlns:xlink="http://www.w3.org/1999/xlink" version="1.1" x="0px" y="0px" viewBox="0 0 100 100" enable-background="new 0 0 100 100" xml:space="preserve"><path d="M48.2985802,32.6856155v-2.102541c0-0.4140625,0.3359375-0.75,0.75-0.75s0.75,0.3359375,0.75,0.75v1.9326191h1.152832  c0.4140625,0,0.75,0.3359375,0.75,0.75s-0.3359375,0.75-0.75,0.75H49.62817  C48.8952599,34.0156937,48.2985802,33.419014,48.2985802,32.6856155z M43.2537804,29.3231869  c0.8066406,0,1.4605103-0.6539307,1.4605103-1.4605713s-0.6538696-1.4605103-1.4605103-1.4605103  s-1.4605103,0.6538696-1.4605103,1.4605103S42.4471397,29.3231869,43.2537804,29.3231869z M56.7460289,29.3231869  c0.8066406,0,1.4605713-0.6539307,1.4605713-1.4605713s-0.6539307-1.4605103-1.4605713-1.4605103  c-0.8065796,0-1.4605103,0.6538696-1.4605103,1.4605103S55.9394493,29.3231869,56.7460289,29.3231869z M49.999752,38.9483109  c1.7749023,0,3.6713867-0.4316406,3.6713867-1.6425781c0-0.4140625-0.3359375-0.75-0.75-0.75  c-0.3339844,0-0.6181641,0.21875-0.7143555,0.5209961c-0.2509766,0.1489258-1.0400391,0.371582-2.2070313,0.371582  c-1.1665039,0-1.9555664-0.2226563-2.206543-0.3710938c-0.0966797-0.3027344-0.3798828-0.5214844-0.7143555-0.5214844  c-0.4140625,0-0.75,0.3359375-0.75,0.75C46.3288536,38.5166702,48.225338,38.9483109,49.999752,38.9483109z M89.7502441,89.2822952  l-0.0166016,3.7363281c-0.0048828,0.9609375-0.7900391,1.7421875-1.75,1.7421875H11.999752c-0.9648438,0-1.75-0.7851563-1.75-1.75  v-3.7314453c0-0.1188965,0.0335693-0.227356,0.0828247-0.3272705c0.0042114-0.008606,0.0019531-0.0186768,0.0065308-0.0272217  l8.8832397-16.5375977l0.6524048-5.4711914c0.0914307-0.7699585,0.7015991-1.3557739,1.4438477-1.4232178v-2.97229  c0-0.3882446,0.2990112-0.6969604,0.6771851-0.7352905c-0.0133667-0.0869751-0.0267944-0.1740723-0.0267944-0.2647095v-0.3330078  c0-0.449585,0.175293-0.8560181,0.4550171-1.1663208l-4.0707397-3.760437  c-0.5356445-0.4931641-0.8432617-1.2226563-0.8432617-2.0009766v-7.9505615  c-0.3965454-0.0196533-0.7143555-0.3413696-0.7143555-0.7427979c0-0.4140625,0.3359375-0.75,0.75-0.75h17.3789063  c0.4140625,0,0.75,0.3359375,0.75,0.75c0,0.4014282-0.3178101,0.7231445-0.7143555,0.7427979v0.5790405  c0.8265381-0.8209229,1.9129639-1.2992554,3.0582275-1.3669434c0.319519-0.3410034,0.7703247-0.5574341,1.2733154-0.5574341  h1.8334961c0.4884644,0,0.9297485,0.2022705,1.2475586,0.5261841h1.0253906v-3.6015015  c-2.9324951-1.7282715-4.7071533-4.5440063-5.770874-7.9304199c-0.132019,0.0247803-0.2654419,0.0374756-0.3995361,0.0374756  c-1.2539063,0-2.5605469-1.0595703-3.206543-2.7177753c-0.3525391-0.9047852-0.4501953-1.8574219-0.2749023-2.6821289  c0.1967773-0.9257813,0.7329102-1.6210938,1.4707031-1.9082031c0.0681763-0.0266113,0.1394653-0.031311,0.2088013-0.0505371  c-0.4725342-2.2325439-2.1137695-11.6519766,2.4186401-17.2341309c2.3134766-2.8496094,5.8457031-4.2207031,10.4541016-4.0566406  c0.121582,0.0039063,0.2387695,0.03125,0.3466797,0.078125c5.8725586-0.6943359,10.284668,0.5654297,13.1137695,3.7509766  c4.8811684,5.4968872,3.3913002,14.8895864,2.8629799,17.4732056c0.0534668,0.0161133,0.1087036,0.0184326,0.161438,0.0390015  c0.7373047,0.2871094,1.2734375,0.9824219,1.4697266,1.9082031c0.1748047,0.824707,0.0771484,1.7773438-0.2744141,2.6821289  c-0.3525391,0.9038105-0.9238281,1.6718769-1.6113281,2.1611347c-0.5136757,0.3657227-1.0693398,0.5541992-1.6015663,0.5541992  c-0.1303711,0-0.2594604-0.0120239-0.3863525-0.0349731c-1.0631714,3.4006958-2.8395386,6.2255249-5.77771,7.9517822v3.5800781  h1.0258789c0.3178101-0.3239136,0.7590942-0.5261841,1.2475586-0.5261841h1.8330078  c0.5029907,0,0.9537964,0.2163696,1.2733154,0.557373c1.6403809,0.0968018,3.1854286,1.0232544,3.9727821,2.5979004  L76.0403442,68.283638c0.5404053-0.262146,1.1199341-0.4539185,1.7382202-0.5473022V66.474678h-1.5371094  c-0.4140625,0-0.75-0.3359375-0.75-0.75s0.3359375-0.75,0.75-0.75h2.2871094c0.4140625,0,0.75,0.3359375,0.75,0.75v1.9796143  c2.7697144,0.2557983,5.0119019,2.3092041,5.3134766,5.008667c0.0353394,0.3190308-0.0696411,0.6325684-0.2682495,0.8837891  l-0.3297119,4.7775269l5.6672974,10.5505981c0.0048218,0.0089722,0.0024414,0.0195923,0.0068359,0.0287476  C89.7174072,89.0539627,89.7507935,89.1629105,89.7502441,89.2822952z M62.786129,32.488472  c0.2153931-0.0046997,0.4627075-0.0947876,0.7111816-0.2716064c0.4453125-0.3168964,0.8398476-0.8574238,1.0830116-1.4834003  c0.2441406-0.6264648,0.3193359-1.2919922,0.2060547-1.8261719c-0.0527344-0.2480469-0.1943359-0.6845703-0.5478516-0.8222656  c-0.1942139-0.0751343-0.4418373-0.0352173-0.7012978,0.0924072C63.3662071,29.668829,63.1235924,31.115057,62.786129,32.488472z   M37.2192955,32.4906693c-0.3397827-1.3759174-0.5837402-2.824892-0.7555542-4.3190937  c-0.1672363-0.0823975-0.3293457-0.1265869-0.475708-0.1265869c-0.0810547,0-0.1572266,0.0131836-0.2270508,0.0400391  c-0.3535156,0.1376953-0.4946289,0.5742188-0.5473633,0.8222656c-0.1132813,0.5341797-0.0385742,1.199707,0.2050781,1.8256836  C35.8418541,31.8184261,36.6467857,32.4784012,37.2192955,32.4906693z M74.3615723,72.5733109h8.6933594  c-0.006897-0.0361328-0.0223999-0.0687256-0.0302124-0.1044922c-0.3810425-1.7387695-1.8860474-3.0413208-3.7461548-3.2677002  c-0.1881104-0.0228882-0.3758545-0.0477295-0.5703125-0.0477295c-0.3198853,0-0.628418,0.0410767-0.9296875,0.1018677  c-0.3779907,0.0762939-0.7352905,0.2007446-1.071228,0.3619385c-0.776001,0.3723145-1.4221802,0.9466553-1.8490601,1.6660767  c-0.1398315,0.2356567-0.2504272,0.487793-0.3403931,0.7501831c-0.0487671,0.1422729-0.0933228,0.286377-0.1260376,0.4353638  C74.3839722,72.5045853,74.3684692,72.537178,74.3615723,72.5733109z M74.6295166,74.0733109l0.7359619,10.671875  c0.3505859,0.2060547,1.5244141,0.5175781,3.3427734,0.5175781c1.8232422,0,3-0.3134766,3.3457031-0.5195313l0.7330322-10.6699219  H74.6295166z M63.6874962,68.2135696c0.4619179-0.2087402,0.9460487-0.37677,1.4628944-0.4657593l-1.4628944-2.9247437V68.2135696z   M62.0178795,72.0334549c-0.0487671,0.1422729-0.0933228,0.286377-0.1260376,0.4353638  c-0.0078735,0.0357666-0.0233765,0.0683594-0.0302734,0.1044922h8.6933632  c-0.006897-0.0361328-0.0223999-0.0687256-0.0302124-0.1044922c-0.0326538-0.1489868-0.0771484-0.2930908-0.1258545-0.4353638  c-0.0898438-0.2623901-0.2003174-0.5145264-0.3400879-0.7501831c-0.758606-1.2791138-2.2014771-2.1298828-3.8505249-2.1298828  c-0.1161499,0-0.2265625,0.0202637-0.3405151,0.0285034c-0.8069458,0.0585327-1.5506592,0.3167725-2.1802406,0.730835  c-0.0422974,0.027832-0.0853271,0.0545654-0.1265259,0.0837402c-0.251709,0.1782227-0.4884033,0.3734741-0.694397,0.5981445  c-0.1937256,0.2113037-0.3621826,0.4423828-0.5083008,0.6886597c-0.0545044,0.0918579-0.0969849,0.1906738-0.1442261,0.2868652  C62.1401329,71.7207108,62.0727501,71.8733597,62.0178795,72.0334549z M62.1295128,74.0733109l0.7338257,10.640625  l0.0021362,0.03125c0.177063,0.1040649,0.5653687,0.2348022,1.139286,0.3389282  c0.2366333,0.0429688,0.5105591,0.0797729,0.8091431,0.1098633c0.4112549,0.0413818,0.8728638,0.0687866,1.3943481,0.0687866  c1.8232422,0,3-0.3134766,3.3457031-0.5195313l0.7330322-10.6699219H62.1295128z M43.4698448,40.1002274  c0.21698,0.1582031,0.446106,0.3032837,0.6783447,0.4445801c1.1513672,0.7006226,2.4758911,1.2106323,4.0368042,1.4729614  c0.5863037,0.0985107,1.203186,0.1651611,1.8528442,0.1981201c0.6635742-0.0339355,1.2903442-0.1060791,1.8875732-0.2094116  c1.5126953-0.2616577,2.8022461-0.7594604,3.9259033-1.4412231c0.2335205-0.1417236,0.4655762-0.2854004,0.6837158-0.4443359  c2.1580811-1.5723877,3.5712891-3.9830933,4.4716187-7.0679321c0.1054077-0.3612061,0.2088013-0.7255859,0.3004761-1.1051044  c0.2435913-1.0082397,0.4433594-2.0761108,0.5995483-3.2072754c0.0611572-0.4428101,0.1108398-0.9030151,0.1600952-1.3636475  c0.0227051-0.2123413,0.0487671-0.4197388,0.0690308-0.6358032l-0.6463013-0.8905029  c-4.3291016-2.3291016-6.4521484-6.0385742-7.3974609-8.3027344c-2.4501953,2.8022461-6.4145508,2.7592773-6.6206055,2.7470703  c-0.4316406-0.0097656-0.8027344-0.3095703-0.902832-0.7294922c-0.0253906-0.1079102-0.0317383-0.2167969-0.0200195-0.3227539  c-2.3359375,0.9165039-4.5458984,1.0429688-4.7119141,1.0512695c-0.3251953,0.0258789-0.6337891-0.1376953-0.8183594-0.3930664  c-1.1723633,0.5400391-2.1679688,0.7553711-2.6293945,0.8334961c-0.3060303,0.7474976-0.5629272,1.6598511-0.7384644,2.758667  c0.0574341,1.355835,0.1517944,2.6502075,0.2842407,3.8853149c0.0494385,0.4615479,0.0994873,0.9225464,0.1610107,1.3662109  c0.15625,1.126709,0.3560791,2.1904907,0.5994873,3.1951904c0.0921631,0.380434,0.1959839,0.7458515,0.302002,1.1079121  C39.8977623,36.1223221,41.3118248,38.5265579,43.4698448,40.1002274z M50.037838,43.7139359  c-1.9795532-0.0999756-3.6782227-0.4752197-5.1396484-1.076416v3.373291c3.3105469,1.0205078,6.894043,1.0205078,10.2036133,0  v-3.3560181C53.6586876,43.2451859,51.9855919,43.6149979,50.037838,43.7139359z M37.8189659,71.2832718h4.1372681  c1.3162231-0.7359619,4.2236328-0.9179688,6.769104-0.9179688s5.453125,0.1820068,6.7695313,0.9179688h5.213501  c0.2930908-0.7285156,0.7312012-1.3771362,1.2880859-1.9204712l-0.9724731-9.8647461l-0.0657349-0.6669312V46.7139359  c0-0.1376953-0.1123047-0.25-0.25-0.25h-1.8330078c-0.0372314,0-0.0637817,0.0249634-0.0955811,0.0396729  c-0.0494385,0.0228271-0.083252,0.0532227-0.1090088,0.1009521c-0.0189209,0.0351563-0.0454102,0.0667725-0.0454102,0.109375  V57.880928c0,0.9648438-0.7851563,1.75-1.75,1.75h-13.75c-0.9648438,0-1.75-0.7851563-1.75-1.75V46.7139359  c0-0.0422974-0.0263672-0.0734863-0.0450439-0.1084595c-0.0258789-0.048584-0.0604248-0.0795288-0.1107788-0.102417  c-0.0314331-0.0142822-0.0574951-0.0391235-0.0941772-0.0391235h-1.8334961c-0.1376953,0-0.25,0.1123047-0.25,0.25  l-0.0078125,12.2841797l-0.0472412,0.4779053L37.8189659,71.2832718z M55.4360313,80.6837845  c0.2804565-0.0740356,0.5496826-0.1918945,0.7927246-0.3653564c0.487793-0.3475342,0.8152466-0.8533936,0.9528809-1.4306641  c0.0128174-0.0537109,0.0338745-0.104187,0.0432129-0.1591797c0.1083984-0.6455078-0.0410156-1.2939453-0.4199219-1.828125  c-0.2494507-0.3501587-0.5841675-0.6131592-0.9638062-0.7901001L55.4360313,80.6837845z M42.890316,73.5742264l0.9795532,11.0606079  c0.0471191,0.0249634,0.1154785,0.0519409,0.1871338,0.0791016c0.6398926,0.2423096,2.239563,0.5488281,4.668335,0.5488281  c2.4277954,0,4.027771-0.3065186,4.6679688-0.5488281c0.0745239-0.0281982,0.1437988-0.0561523,0.1918945-0.0820313  l0.9748535-11.0574951c-1.499939,0.4313965-3.7827148,0.5516357-5.8347168,0.5516357  C46.6730919,74.1260452,44.3900719,74.005806,42.890316,73.5742264z M44.5423546,72.3727493  c1.0222778,0.1427612,2.4228516,0.2532959,4.1829834,0.2532959s3.1607056-0.1105347,4.1832275-0.2532959  c0.2908325-0.0405884,0.5559082-0.0834351,0.7840576-0.1275635c-0.3963013-0.0762329-0.8902588-0.1497803-1.4741821-0.211731  c-0.9342041-0.0991211-2.1019287-0.1681519-3.493103-0.1681519c-1.3908691,0-2.5587158,0.0690308-3.4928589,0.1681519  c-0.5839233,0.0619507-1.0778198,0.135498-1.473938,0.211731C43.9865685,72.2893143,44.2515831,72.3321609,44.5423546,72.3727493z   M33.5368614,70.3720169l0.0756226,0.9112549h2.6987305l0.0011597-0.0119019v-6.4485474L33.5368614,70.3720169z   M24.0026817,59.4375687h4.4648438l4.6318359-4.2783203c0.2260742-0.2089844,0.3608398-0.5449219,0.3608398-0.8994141v-7.4248047  H19.010006v7.4248047c0,0.3544922,0.1347656,0.6904297,0.3603516,0.8984375L24.0026817,59.4375687z M22.8185997,63.2705765  v2.2089844h6.8330078v-2.2089844H22.8185997z M23.7189903,61.7705765h5.0317383c0.1376953,0,0.25-0.1123047,0.25-0.25v-0.3330078  c0-0.1359863-0.1103516-0.2454224-0.2456665-0.2481689l-5.0360718-0.0018311c-0.1376953,0-0.25,0.1123047-0.25,0.25v0.3330078  C23.4689903,61.6582718,23.581295,61.7705765,23.7189903,61.7705765z M19.2160606,85.106514  c-0.0078125,0.0683594,0.0224609,0.1113281,0.0361328,0.1259766l13.9082031,0.0302734c0.0073242,0,0.0302734,0,0.0566406-0.0283203  c0.0131836-0.0146484,0.043457-0.0556641,0.0375977-0.1210938L31.760006,67.1006546  c-0.0058594-0.0751953-0.0537109-0.1210938-0.0942383-0.1210938H21.4592857h-0.0010376  c-0.0385742,0-0.0859375,0.0439453-0.0942383,0.1142578L19.2160606,85.106514z M12.2541466,88.5293655h75.4921875  l-3.9460449-7.3462524l-0.2668457,3.8667603c-0.2529297,1.59375-3.7568359,1.7128906-4.8251953,1.7128906  s-4.5722656-0.1191406-4.8173828-1.6455078l-0.7978516-11.5199585c-0.184082-0.2324829-0.2764282-0.5189209-0.2614136-0.8140259  h-0.7467041c0.0149536,0.2949219-0.0773926,0.5810547-0.2611084,0.8134766l-0.7903442,11.453125  c-0.2529297,1.59375-3.7568359,1.7128906-4.8251953,1.7128906c-0.7151489,0-2.5183754-0.0557251-3.7081947-0.5488281  c-0.440979-0.1827393-0.793457-0.4268188-0.9780884-0.750061c-0.0614624-0.1075439-0.1109009-0.2206421-0.1311035-0.3466187  l-0.0279541-0.4033203l-0.7698975-11.1166382c-0.184082-0.2324829-0.2764282-0.5189209-0.2614136-0.8140259h-4.1958008  l-0.1577759,1.7816772c0.8221436,0.2544556,1.5408325,0.7529907,2.048584,1.4663696  c0.5944824,0.8343506,0.8302612,1.8455811,0.6831055,2.8564453c-0.0043945,0.0303345-0.0012207,0.0604858-0.0063477,0.0908203  c-0.1748047,1.0400391-0.7451172,1.9501953-1.6044922,2.5615234c-0.5421753,0.3856812-1.1587524,0.6165161-1.800354,0.696106  l-0.2194824,2.4777222l-0.0250854,0.2832031c-0.0351563,0.1723633-0.1192017,0.3258057-0.2334595,0.4667358  c-0.2605591,0.3214111-0.7054443,0.5661011-1.2591553,0.750061c-1.3833008,0.4597168-3.4217529,0.5488281-4.8359985,0.5488281  c-1.4370117,0-3.5161133-0.0927734-4.8964233-0.5488281c-0.5571289-0.184082-0.9953003-0.428772-1.2346191-0.750061  c-0.0874634-0.1173706-0.1565552-0.2417603-0.1853638-0.3807983l-0.0328369-0.3691406l-1.0615845-11.9306641h-7.5775757  l1.0128174,12.2050781c0.0385742,0.4638672-0.1181641,0.9238281-0.4291992,1.2617188  c-0.2998047,0.3261719-0.7226563,0.5126953-1.1601563,0.5126953H19.3098106c-0.4482422,0-0.8779297-0.1943359-1.1791992-0.5341797  c-0.3129883-0.3525391-0.4604492-0.8261719-0.4038086-1.2998047l1.0098267-8.4683228L12.2541466,88.5293655z M88.2468872,90.0293655  H11.749752v2.9814453c0,0.1376953,0.1123047,0.25,0.25,0.25h75.9838867c0.1367188,0,0.2490234-0.1113281,0.25-0.2490234  L88.2468872,90.0293655z M27.8214684,58.7881546c0.2515259,0,0.4937744-0.0947876,0.6785278-0.2654419l0.6351318-0.5866699  l3.3215942-3.0681152c0.2255249-0.208252,0.3537598-0.5012817,0.3537598-0.8082886v-3.3251953  c0-0.0370483-0.0134888-0.0697021-0.0211182-0.1044922c-0.0493774-0.2241821-0.2397461-0.3955078-0.4788818-0.3955078H20.1596031  c-0.276123,0-0.5,0.223877-0.5,0.5v3.3255005c0,0.3068237,0.1281738,0.5996094,0.3535156,0.8078003l3.9570313,3.6549683  c0.1847534,0.1706543,0.427002,0.2654419,0.6785278,0.2654419H27.8214684z M48.5233116,78.8325882  c0.1318359-0.1820679,0.2747192-0.3598022,0.4398193-0.5249023c0.6392822-0.6389771,1.3891602-1.0003052,2.06604-1.0700684  c0.5396729-0.0556641,1.0339966,0.0698853,1.3812256,0.4177246c0.0143433,0.0142822,0.0221558,0.0336304,0.0358276,0.0484619  c0.2781372,0.3026123,0.4185181,0.7150879,0.4019165,1.18396c-0.0054321,0.1526489-0.024353,0.3099976-0.0627441,0.4716797  c-0.0170898,0.0717163-0.0471802,0.1435547-0.0703125,0.2153931c-0.1548462,0.480896-0.4398193,0.9575195-0.8270264,1.3807983  c-0.0443726,0.0485229-0.0831299,0.1000977-0.1300049,0.1469727c-0.5175781,0.5175781-1.1362305,0.8828125-1.7426758,1.0273438  c-0.1884766,0.0449219-0.3725586,0.0664063-0.5483398,0.0664063c-0.4609375,0-0.8666992-0.1513672-1.15625-0.4414063  c-0.1394043-0.1394043-0.234436-0.3127441-0.3084106-0.4989014c-0.3573608,0.5455322-0.8600464,0.883667-1.4284058,0.883667  c-1.1083984,0-1.9765625-1.2734375-1.9765625-2.8994141c0-0.1211548,0.0141602-0.2356567,0.0235596-0.3525391  c0.1165161-1.4514771,0.9271851-2.546875,1.9530029-2.546875C47.5868492,76.340889,48.3908653,77.4085159,48.5233116,78.8325882z   M45.5974083,79.240303c0,0.6888428,0.2075195,1.265564,0.4765625,1.5969849V78.887764v-1.2444458  c-0.2214966,0.2728882-0.3994141,0.7128296-0.4558716,1.2444458C45.6059532,79.0017776,45.5974083,79.11866,45.5974083,79.240303z   M47.5505333,79.240303c0-0.1216431-0.0085449-0.2385254-0.0206909-0.3525391  c-0.0564575-0.5316162-0.234375-0.9715576-0.4558716-1.2444458v1.2444458v1.9495239  C47.3430138,80.505867,47.5505333,79.9291458,47.5505333,79.240303z M51.3023643,80.1124954  c0.251709-0.31604,0.4330444-0.661377,0.5098877-0.9844971c0.0159912-0.0668335,0.0061035-0.118042,0.0126953-0.1797485  l-0.7156372,0.7155151l-1.5056763,1.5053711c0.0619507-0.0062866,0.1130371,0.003479,0.1802979-0.0118408  c0.4223633-0.1005859,0.8842773-0.3789063,1.2670898-0.7617188C51.1414146,80.3053055,51.2246666,80.2100296,51.3023643,80.1124954z   M49.8196983,78.887764c-0.0496216,0.0440063-0.1010742,0.0784912-0.1495361,0.1269531  c-0.3828125,0.3828125-0.6601563,0.8457031-0.7607422,1.2675781c-0.0159912,0.0669556-0.0061035,0.117981-0.0126953,0.1797485  l1.5745239-1.5742798l0.3931274-0.3930664l0.2609253-0.2608032c-0.0826416,0.0089111-0.164856,0.0183105-0.2558594,0.0437012  C50.5402794,78.3694534,50.169796,78.5772781,49.8196983,78.887764z M48.4904747,65.9385452  c0.9130859,0.0107422,2.6123047,0.0322266,2.8325195,0.3759766c0.015625,0.0244141,0.0068359,0.1083984-0.0307617,0.2050781  c-0.1923828,0.1777344-1.2617188,0.1835938-1.8359375,0.1865234c-1.1948242,0.0058594-2.2270508,0.0107422-2.5712891,0.6484375  c-0.1186523,0.21875-0.1899414,0.5888672,0.1425781,1.1015625c0.3544922,0.5458984,1.0742188,0.5761719,1.7089844,0.6035156  c0.2587891,0.0107422,0.7407227,0.03125,0.8271484,0.1025391c0.0004883,0.0009766,0.0097656,0.0332031-0.0058594,0.1191406  c-0.0488281,0.2714844,0.1313477,0.5322266,0.4033203,0.5810547c0.0302734,0.0048828,0.0600586,0.0078125,0.0893555,0.0078125  c0.2373047,0,0.4477539-0.1699219,0.4916992-0.4111328c0.0654297-0.3632813,0.0014648-0.6689453-0.1899414-0.9082031  c-0.3510742-0.4384766-0.9726563-0.4648438-1.5737305-0.4902344c-0.2509766-0.0107422-0.8383789-0.0361328-0.9121094-0.1494141  c-0.0224609-0.0341797-0.0390625-0.0634766-0.0507813-0.0869141c0.2988281-0.1123047,1.1289063-0.1162109,1.6455078-0.1181641  c1.284668-0.0068359,2.3945313-0.0117188,2.7246094-0.7490234c0.25-0.5576172,0.1269531-0.9501953-0.0205078-1.1806641  c-0.5102539-0.7998047-2.0415039-0.8183594-3.6625977-0.8378906c-0.8168945-0.0097656-2.1835938-0.0263672-2.3823242-0.1796875  c0.137207-0.4335938,2.6572266-0.8769531,5.6967773-0.8007813c0.3061523,0.0029297,0.5053711-0.2119141,0.512207-0.4873047  c0.0068359-0.2763672-0.2109375-0.5058594-0.4868164-0.5126953c-0.8647461-0.0253906-5.2421875-0.0761719-6.3798828,1.0332031  c-0.2827148,0.2753906-0.3417969,0.5683594-0.3417969,0.765625C45.1208458,65.8975296,46.6823692,65.9160843,48.4904747,65.9385452z  "></path></svg>