<svg xmlns="http://www.w3.org/2000/svg" xmlns:xlink="http://www.w3.org/1999/xlink" version="1.1" x="0px" y="0px" viewBox="0 0 100 100" style="enable-background:new 0 0 100 100;" xml:space="preserve"><g><path d="M46.4931793,57.9273186c1.432663-1.578331,3.6580391-4.5345764,3.4014702-6.645359   c-0.0804939-0.6640625,0.3929939-1.2683487,1.058239-1.3488388c0.6569595-0.0816765,1.2677536,0.3929901,1.3494301,1.0570526   c0.3420944,2.8172379-1.7755661,5.9249268-3.3193474,7.7741051c1.8937149-0.1017265,3.9293289-1.5673828,5.0878143-3.8826485   v-0.0011864c0.7705956-1.5376396,1.034565-3.2007561,0.7410049-4.6827621   c-0.269886-1.3683739-0.9883995-2.4076729-2.0229645-2.9255447c-0.4900589-0.2456207-1.0191765-0.3616257-1.5636826-0.3616257   c-1.9507599,0-4.0944633,1.491478-5.295929,3.8920441c-0.7705956,1.538826-1.034565,3.203125-0.7421875,4.6851349   C45.3892212,56.5126343,45.8433228,57.3527031,46.4931793,57.9273186z"></path><path d="M72.133049,16.4137955V13.184186C72.133049,11.09375,69.3170013,10,66.5352783,10H33.4647255   c-2.781723,0-5.5977745,1.09375-5.5977745,3.184186v3.2296095c-3.1827793,0.1643143-6.1943665,1.4441299-6.1943665,3.7489643   v5.7321262c0,0.6693897,0.542141,1.212122,1.212122,1.212122h3.88731l6.3979664,58.3641052   c0.0449791,0.4131165,0.2994766,0.774147,0.6735306,0.9564438C34.1429939,86.5743408,41.266571,90,50,90   s15.8570099-3.4256592,16.1564865-3.5724411c0.374054-0.1822968,0.6285477-0.5433273,0.6735306-0.9564438l6.3979645-58.3641052   h3.8873138c0.6699829,0,1.2121201-0.5427322,1.2121201-1.212122v-5.7321262   C78.3274155,17.8579254,75.3158264,16.5781097,72.133049,16.4137955z M33.4647255,12.424242h33.0705528   c1.844223,0,2.9557266,0.5669985,3.1735306,0.840436v3.129735H30.28409l-0.016571-3.0954075   C30.414299,13.0415487,31.5423775,12.424242,33.4647255,12.424242z M64.4957352,84.5170441   C62.6538811,85.3089523,56.7862206,87.5757599,50,87.5757599c-6.766098,0-12.6503296-2.2679977-14.495739-3.0587158   l-1.9905586-18.1569595h32.9725952L64.4957352,84.5170441z M43.7606544,49.7170944   c2.1377831-4.2672844,6.6725845-6.3358192,10.1148186-4.6123352c1.71875,0.8611488,2.8965454,2.5029602,3.3155785,4.6235771   c0.395359,2.0069847,0.0580025,4.2217102-0.9517059,6.2375717c-1.6252365,3.2469215-4.6413345,5.2213554-7.5059166,5.2213554   c-0.8681793,0-1.721859-0.1856956-2.5199776-0.5685501c-0.0060654-0.0024414-0.0116882-0.0049591-0.0177536-0.0075493   c-0.0230103-0.0111694-0.0470543-0.0184937-0.0699883-0.0299606c-1.7199326-0.8605614-2.897728-2.5035515-3.316761-4.6235809   C42.4124069,53.9500465,42.750946,51.7341385,43.7606544,49.7170944z M69.4500885,39.3252831H30.5499077L29.2104645,27.107008   h41.579071L69.4500885,39.3252831z"></path></g></svg>