<svg xmlns="http://www.w3.org/2000/svg" xmlns:xlink="http://www.w3.org/1999/xlink" xml:space="preserve" version="1.1" style="shape-rendering:geometricPrecision;text-rendering:geometricPrecision;image-rendering:optimizeQuality;" viewBox="0 0 379 287" x="0px" y="0px" fill-rule="evenodd" clip-rule="evenodd"><defs><style type="text/css">
   
    .fil0 {fill:black}
   
  </style></defs><g><path class="fil0" d="M240 286c-124,-26 -86,-263 42,-268 20,145 -55,139 -42,268z"></path><path class="fil0" d="M259 287c-14,-124 61,-123 42,-268 127,24 88,267 -42,268z"></path><path class="fil0" d="M166 224c-80,3 -178,-64 -164,-149 93,6 118,38 158,63 -5,28 -3,59 6,86z"></path><path class="fil0" d="M213 40c-23,21 -40,50 -49,79 -38,-25 -66,-56 -157,-62 33,-81 149,-64 206,-17z"></path></g></svg>