<svg xmlns="http://www.w3.org/2000/svg" xmlns:xlink="http://www.w3.org/1999/xlink" version="1.1" x="0px" y="0px" viewBox="0 0 100 100" style="enable-background:new 0 0 100 100;" xml:space="preserve"><g><path d="M90,71.1896286c0-4.5651321-8.661293-7.1499176-15.3622131-8.4662018   c0.1753311-0.315239,0.2982941-0.6534119,0.2982941-1.0390053V43.733429c0-5.4888725-22.3839989-5.6474915-24.9360809-5.6474915   s-24.936079,0.1586189-24.936079,5.6474915v1.5104141h-2.6195545c-3.5629749,0-6.4618855,2.8989143-6.4618855,6.4618874v13.6775703   C12.0284386,67.0322113,10,68.980896,10,71.1896286c0,0.6422424,0.1742277,1.2557755,0.5025597,1.8411179   C10.1796284,73.6189041,10,74.2264404,10,74.850853c0,6.9424744,20.123106,10.5740967,40,10.5740967s40-3.6316223,40-10.5740967   c0-0.6252213-0.1769638-1.2346115-0.5007858-1.8238754C89.8261414,72.4427414,90,71.8305359,90,71.1896286z M27.488163,46.4618111   c0-0.0014801,0.0008144-0.0025902,0.0008144-0.0040703C33.3460579,49.2770462,47.9660873,49.3809204,50,49.3809204   c2.033989,0,16.6552734-0.1039467,22.5118408-2.9236221V61.593277c-0.0697708,0.0851517-0.3136139,0.3259659-1.0106735,0.6491928   c-0.2073669,0.0321083-0.3975754,0.1080856-0.5582657,0.2345963c-0.3526001,0.1368675-0.7757034,0.2826843-1.2968292,0.434864   c-0.0088806,0.0025902-0.0147247,0.0095444-0.0234528,0.0122833c-0.1103821,0.0346985-0.2059708,0.0937347-0.3009644,0.1578026   c-0.0379486,0.0253754-0.0818176,0.0415039-0.1162186,0.070652c-0.0749435,0.0638466-0.1288834,0.1447105-0.1868057,0.2249069   c-0.0340347,0.0471992-0.0762024,0.0867805-0.1030579,0.1382713c-0.0399551,0.0762024-0.0554123,0.1618729-0.0787201,0.246582   c-0.0190887,0.0694695-0.0458679,0.1345749-0.0523071,0.2072983c-0.0014725,0.0168686-0.0112381,0.0307007-0.0120544,0.0477905   l-0.4095688,8.8151093C67.9427109,73.9737244,61.2653885,76.100853,50,76.100853s-17.9427071-2.1271286-18.3581905-3.2800674   l-0.3370628-7.1611633c5.1751156,1.219223,12.1483631,1.5408249,15.1239948,1.6237564c0.011837,0,0.023674,0,0.035511,0   c0.6534081,0,1.1919975-0.5208282,1.2109375-1.1777878c0.0177536-0.6699829-0.5089951-1.2275162-1.1777954-1.2464523   c-12.2028885-0.3397293-18.3345165-2.2668076-19.0092316-3.2599449V46.4618111z M18.406723,51.7057304   c0-2.2265625,1.8110809-4.0376434,4.0376434-4.0376434h2.6195545v14.0163345c0,0.3565941,0.1068287,0.6879578,0.2871971,1.0008278   c-1.3808727,0.2390366-2.3973122,0.4612808-4.018259,0.9451942c-0.641571,0.191761-1.006155,0.8664818-0.814394,1.5080528   c0.15625,0.5255661,0.6392059,0.8652878,1.1612225,0.8652878c0.1148205,0,0.2308235-0.016571,0.3468285-0.0508957   c2.0383511-0.608429,3.004261-0.7658615,5.338541-1.1446533l0.7700787-0.1258392   c0.2274208,0.0929184,0.4632759,0.1828842,0.7091923,0.269371l0.2365932,5.007988h-6.6365547   c-2.2265625,0-4.0376434-1.8110809-4.0376434-4.0364609V51.7057304z M87.3060226,72.0101624   c-0.0232315,0.0167999-0.0512009,0.0213089-0.0735397,0.0400238c-0.1574326,0.1323547-0.2573853,0.300293-0.3291473,0.4785919   C83.8269424,75.7143707,70.3457947,79.3394852,50,79.3394852c-20.1269531,0-33.5284958-3.5472107-36.792881-6.707428   c-0.0560045-0.2374039-0.1625385-0.4648285-0.3602924-0.6375046c-0.0754614-0.0662079-0.1652756-0.0992813-0.2507248-0.1433716   c-0.1134148-0.2248383-0.1718607-0.4459686-0.1718607-0.6615524c0-1.0078583,1.4353991-2.2116928,3.8911572-3.3186111   c0.832077,2.6072769,3.2491436,4.5129776,6.1289673,4.5129776h6.7510796l0.023304,0.4936066   c0,4.4578629,13.0622635,5.6474915,20.78125,5.6474915s20.78125-1.1896286,20.7800674-5.5906677l0.3743515-7.9551392   c0.2567139-0.085968,0.5156479-0.1789627,0.7725906-0.2807617c10.7396011,1.8053055,15.6487503,4.6170654,15.6487503,6.4911041   C87.5757599,71.4556732,87.4782486,71.7305908,87.3060226,72.0101624z"></path><path d="M41.9034081,36.1470184c0.6699829,0,1.2121239-0.542141,1.2121239-1.2121239v-9.8555851   c0-0.669981-0.542141-1.212122-1.2121239-1.212122c-0.6699791,0-1.2121201,0.542141-1.2121201,1.212122v9.8555851   C40.691288,35.6048775,41.233429,36.1470184,41.9034081,36.1470184z"></path><path d="M58.0965919,32.7675171c0.6699791,0,1.2121201-0.5421371,1.2121201-1.2121201v-9.8544025   c0-0.669981-0.542141-1.212122-1.2121201-1.212122c-0.6699829,0-1.2121239,0.542141-1.2121239,1.212122v9.8544025   C56.8844681,32.2253799,57.426609,32.7675171,58.0965919,32.7675171z"></path><path d="M50.4225845,36.1470184c0.6699829,0,1.2121201-0.542141,1.2121201-1.2121239V15.7871685   c0-0.669981-0.5421371-1.212121-1.2121201-1.212121c-0.6699791,0-1.2121201,0.54214-1.2121201,1.212121v19.1477261   C49.2104645,35.6048775,49.7526054,36.1470184,50.4225845,36.1470184z"></path></g></svg>