<svg xmlns="http://www.w3.org/2000/svg" xmlns:xlink="http://www.w3.org/1999/xlink" version="1.1" x="0px" y="0px" viewBox="0 0 100 100" style="enable-background:new 0 0 100 100;" xml:space="preserve"><g><path d="M46.741642,71.4127274c1.2958565-1.4546204,3.3029671-4.1554489,3.0748863-6.0325012   c-0.0804939-0.6640625,0.3929863-1.267746,1.0582275-1.3494186c0.6652374-0.0793114,1.2689247,0.3929825,1.3494148,1.0582275   c0.3106499,2.5653-1.5397682,5.3748093-2.9674606,7.1205444c1.6687202-0.1824341,3.4260712-1.4954529,4.4459038-3.5351181   l0.0011826-0.0011826c0.7066689-1.40979,0.948143-2.9343948,0.6806297-4.2932816   c-0.246212-1.2440681-0.8972473-2.1874771-1.8335533-2.6562233c-0.4427032-0.2225342-0.9221001-0.3267021-1.4145203-0.3267021   c-1.7791023,0-3.7404938,1.3683586-4.8413353,3.5688553c-0.7078514,1.4109726-0.9493256,2.9367599-0.6806259,4.2944641   C45.7912788,70.1594849,46.1864891,70.8933792,46.741642,71.4127274z"></path><path d="M71.1361465,37.4567375H70.990036c-1.1136398-5.499691-4.2177429-10.1443825-8.5174637-13.2060966l3.302597-11.3580446   c0.187027-0.6427488-0.1822891-1.3150911-0.8250351-1.5021152l-4.6116982-1.3411322   c-0.3089447-0.092329-0.6415672-0.0532665-0.9221039,0.1017981c-0.2817192,0.1538811-0.4912338,0.4142952-0.5800133,0.7232409   l-2.9701958,10.2208805C53.9993515,20.5723686,52.0322647,20.2907219,50,20.2907219   c-10.3078079,0-18.962431,7.1624947-20.9900341,17.1660156h-0.1461143c-2.2229881,0-4.0316811,1.7317543-4.0316811,3.8612328   v0.8842239c0,1.8163872,1.3204899,3.3332253,3.0869408,3.7430077l5.5161915,42.9965706   C33.5134277,89.5466461,34.0283356,90,34.6379395,90h30.7241211c0.6096039,0,1.1245117-0.4533539,1.2026367-1.0582275   l5.5161896-42.9965706c1.766449-0.4097099,3.0869446-1.9266205,3.0869446-3.7430077v-0.8842239   C75.1678314,39.1884918,73.3591385,37.4567375,71.1361465,37.4567375z M60.8261223,12.7150412l2.2833557,0.6640558   l-2.7769623,9.5509052c-0.7025986-0.3841839-1.4275398-0.7299728-2.1749001-1.0346279L60.8261223,12.7150412z    M40.8086433,26.9237328c0.4526901-0.2647057,0.9226952-0.5035915,1.398468-0.7097759   c0.5026283-0.2158031,1.0752411,0.0153141,1.2920074,0.5112095c0.2148438,0.4978199-0.0134659,1.0762062-0.5112839,1.2920094   c-0.4028282,0.1745949-0.8027687,0.3769341-1.1874008,0.602354c-0.1554337,0.0911465-0.326107,0.1342773-0.4949341,0.1342773   c-0.3376503,0-0.6656837-0.1735611-0.8489342-0.4862785C40.1832047,27.799448,40.3405647,27.1980553,40.8086433,26.9237328z    M38.3550568,28.7864323c0.3913574-0.3769341,1.0128746-0.3645058,1.3888474,0.024931   c0.3770103,0.3903999,0.3654671,1.0119896-0.024929,1.3889256c-1.7245789,1.6641331-2.8736572,3.8798733-3.2352753,6.2394314   c-0.0738335,0.4862785-0.4930115,0.8335457-0.9697456,0.8335457c-0.0489044,0-0.0997276-0.003849-0.1495895-0.0115395   c-0.5362167-0.082489-0.9045715-0.5831947-0.8220825-1.119339C34.9691544,33.3598061,36.322567,30.7479706,38.3550568,28.7864323z    M64.2955475,87.5757828H35.7044563l-0.8743858-6.8157425h30.339859L64.2955475,87.5757828z M44.1264801,63.8792915   c2.0063705-4.003273,6.2736092-5.9433594,9.5098457-4.3240547c1.6216698,0.8132019,2.7319794,2.3591118,3.126152,4.3560143   c0.3716812,1.8820839,0.054451,3.9594765-0.8913269,5.847477c-1.5246048,3.0468445-4.3571968,4.8993378-7.0501175,4.8993378   c-0.8160133,0-1.6187096-0.1748962-2.3693962-0.5341492c-0.0059204-0.0024414-0.0115395-0.0048828-0.0174599-0.0073929   c-0.0232315-0.0111771-0.0474205-0.0186462-0.0705032-0.0301895c-1.6228523-0.8120193-2.7343483-2.359108-3.128521-4.3560104   C42.863472,67.8470535,43.1807022,65.7696609,44.1264801,63.8792915z M68.7463303,52.8815346H31.2536678l-0.8746796-6.8181114   h39.2420197L68.7463303,52.8815346z M72.7436142,42.2021942c0,0.791893-0.7208786,1.4370117-1.6074677,1.4370117h-0.1373062   H29.0011616h-0.13731c-0.886591,0-1.6074638-0.6451187-1.6074638-1.4370117v-0.8842239   c0-0.7788773,0.7362614-1.4370117,1.6074638-1.4370117h1.1387196h39.9948578h1.1387177   c0.8712082,0,1.6074677,0.6581345,1.6074677,1.4370117V42.2021942z"></path></g></svg>