<svg xmlns="http://www.w3.org/2000/svg" xmlns:xlink="http://www.w3.org/1999/xlink" version="1.1" x="0px" y="0px" viewBox="0 0 100 100" style="enable-background:new 0 0 100 100;" xml:space="preserve"><g><path d="M50,10c-22.0561085,0-40,17.9438915-40,40s17.9438915,40,40,40s40-17.9438934,40-40S72.0561066,10,50,10z M50,87.5757599   C29.280304,87.5757599,12.424242,70.719696,12.424242,50S29.280304,12.424242,50,12.424242S87.5757599,29.280304,87.5757599,50   S70.719696,87.5757599,50,87.5757599z"></path><path d="M23.7630215,70.3645859c-0.411932-0.5279388-1.1730595-0.6226349-1.7009945-0.2095184   c-0.5279369,0.4119339-0.6214485,1.1742401-0.2095184,1.7009964c0.2616005,0.3349838,0.5279369,0.6664276,0.7990074,0.9907608   c0.239109,0.2876434,0.5835686,0.4356079,0.9315815,0.4356079c0.2734375,0,0.549242-0.0923309,0.7753315-0.281723   c0.513731-0.4285049,0.5835686-1.1931839,0.1538811-1.7069092C24.2578125,70.9884033,24.008049,70.6782684,23.7630215,70.3645859z"></path><path d="M20.9741955,31.4453125c-0.5729179-0.34091-1.3174725-0.151516-1.6607494,0.4249535   C16.0665245,37.34375,14.3501425,43.61269,14.3501425,50c0,5.961174,1.508049,11.8655319,4.3619795,17.0762329   c0.2201691,0.4024582,0.6356525,0.6297302,1.0641556,0.6297302c0.196497,0,0.3965435-0.047348,0.5812035-0.149147   c0.587122-0.3219681,0.802557-1.0582352,0.480587-1.6453552C18.179451,61.0570564,16.7743835,55.5551605,16.7743835,50   c0-5.9528885,1.5991955-11.7945061,4.6247635-16.89394C21.740057,32.530777,21.550663,31.787405,20.9741955,31.4453125z"></path><path d="M50,29.0991955c-11.5246201,0-20.9008045,9.3761845-20.9008045,20.9008045S38.4753799,70.9008026,50,70.9008026   S70.9008026,61.5246201,70.9008026,50S61.5246201,29.0991955,50,29.0991955z M42.5260429,35.2142525   c0.7481041-0.719696,2.8858871-2.1496201,6.929451-0.456913c4.0423737-1.6927071,6.1813431-0.2616005,6.929451,0.4557304   c1.3577156,1.3044472,1.6773186,3.3700256,0.8345146,5.3894386c-0.8345146,1.995739-4.7987671,7.7627869-7.7639656,7.7627869   c-2.964016,0-6.9270859-5.7670479-7.7616005-7.7616005C40.8499069,38.5842819,41.1683235,36.5187035,42.5260429,35.2142525z    M64.4093246,56.0298309c-1.5778847,4.7869301-4.5975342,5.198864-7.2608871,5.563446   c-2.348484,0.3207855-4.3761826,0.5977745-5.9517059,3.7701263c-0.2118835,0.4273148-0.6403885,0.6735306-1.086647,0.6735306   c-0.0366936,0-0.0733147-0.0091782-0.1100845-0.0125046c-0.0367699,0.0033264-0.073391,0.0125046-0.1100845,0.0125046   c-0.4462585,0-0.8747635-0.2462158-1.086647-0.6735306c-1.5755234-3.1723518-3.6032219-3.4493408-5.9517059-3.7701263   c-2.663353-0.3645821-5.6830025-0.776516-7.260891-5.563446c-0.2095146-0.636837,0.1361275-1.3222084,0.7717819-1.531723   c0.6392021-0.210701,1.3222046,0.13731,1.531723,0.7717781c1.1032181,3.3499069,2.8574791,3.589016,5.2852745,3.9216385   c1.6689606,0.2276421,3.6073608,0.5000458,5.3506012,1.9136925c0.0627365-0.2394066,0.1316872-0.5340004,0.2016754-0.8798676   c-1.3370056-3.0098114-2.9451523-3.2768097-4.9746246-3.5965614c-2.2443199-0.3539314-5.0390625-0.7942696-6.4145355-5.6072426   c-0.1834755-0.6427574,0.1893921-1.3139229,0.8333321-1.4985809c0.6380196-0.17519,1.3139191,0.1882095,1.4985809,0.8333321   c0.949337,3.3250465,2.3461151,3.5452194,4.4602242,3.8778419c1.5532532,0.2448807,3.3700294,0.5357018,4.964859,2.1606445   c-0.0011101-0.3080597-0.0102081-0.6242599-0.0275955-0.9496346c-0.1055717-0.0974312-0.2009354-0.2078896-0.2686996-0.344532   c-0.7907219-1.5897255-1.7388763-1.7199364-3.0516129-1.898674c-1.5186996-0.2083359-3.5996666-0.492424-4.6117401-3.5606079   c-0.2095184-0.636837,0.1361275-1.3222046,0.7717781-1.531723c0.6392059-0.2083321,1.3210258,0.13731,1.5317268,0.7717819   c0.5374031,1.6311531,1.2381592,1.7270355,2.6361237,1.9187965c0.6924744,0.0945473,1.5036125,0.2160263,2.3102379,0.5817947   c-0.0321808-0.1119347-0.0571136-0.2217979-0.0919609-0.3344002c-0.1976776-0.6403885,0.1598015-1.3186531,0.7990074-1.5163345   c0.6427536-0.1976814,1.3186531,0.1598015,1.5163345,0.7990074c0.1461143,0.4722977,0.2666321,0.9366837,0.3738327,1.3959656   c1.0024529-0.6477127,2.0612831-0.8069954,2.9334602-0.926033c1.3979645-0.191761,2.0987206-0.2876434,2.6361237-1.9187965   c0.2095184-0.6344719,0.8913383-0.980114,1.5317268-0.7717819c0.6356506,0.2095184,0.9812965,0.894886,0.7717781,1.531723   c-1.0120735,3.0681839-3.0930405,3.352272-4.6117401,3.5606079c-1.175724,0.1600952-2.0579605,0.2899361-2.7975578,1.4555931   c0.034771,0.4030571,0.059185,0.7968636,0.0708771,1.1790543c1.433548-1.1377716,2.9887238-1.3888664,4.3436317-1.6024513   c2.114109-0.3326225,3.5108871-0.5527954,4.4602242-3.8778419c0.1846619-0.6451225,0.859375-1.008522,1.4985809-0.8333321   c0.64394,0.1846581,1.0168076,0.8558235,0.8333321,1.4985809c-1.375473,4.812973-4.1690331,5.2533112-6.4145355,5.6072426   c-2.0584755,0.324337-3.683712,0.5812035-5.0319595,3.714489c-0.0088043,0.0203438-0.0242653,0.035141-0.0340309,0.0547447   c-0.0882607,0.4707489-0.1816254,0.8745422-0.2678909,1.2090149c1.8792915-1.8586502,4.0611687-2.1630859,5.9115334-2.4155121   c2.4277954-0.3326225,4.1820564-0.5717316,5.2852745-3.9216385c0.2095184-0.6344681,0.8913345-0.9824791,1.531723-0.7717781   C64.273201,54.7076225,64.6188431,55.3929939,64.4093246,56.0298309z"></path><path d="M80.4509964,45.7966385h-3.0945206C75.325592,32.5238228,63.831749,22.32481,50,22.32481   c-15.2604179,0-27.67519,12.414772-27.67519,27.67519S34.7395821,77.6751862,50,77.6751862   c13.831749,0,25.325592-10.1990051,27.3564758-23.4718246h3.0945206c2.4668503,0,4.4744263-1.8856544,4.4744263-4.2033615   S82.9178467,45.7966385,80.4509964,45.7966385z M50,73.3250504c-12.8610306,0-23.3250465-10.4640198-23.3250465-23.3250504   S37.1389694,26.6749535,50,26.6749535S73.3250504,37.1389694,73.3250504,50S62.8610306,73.3250504,50,73.3250504z    M80.4509964,51.7791176h-2.8391342C77.6494446,51.1902237,77.6751862,50.598217,77.6751862,50   s-0.0257416-1.1902237-0.063324-1.7791176h2.8391342c1.1115036,0,2.0501862,0.8143921,2.0501862,1.7791176   S81.5625,51.7791176,80.4509964,51.7791176z"></path></g></svg>